<?xml version="1.0"?>
<!-- Generated by SVGo -->
<svg width="373.377mm" height="135.252mm"
     viewBox="0.000 0.000 373.377 135.252"
     xmlns="http://www.w3.org/2000/svg" 
     xmlns:xlink="http://www.w3.org/1999/xlink">
<polygon points="363.377,5.001 363.769,5.016 364.159,5.062 364.544,5.139 364.922,5.245 365.290,5.381 365.646,5.545 365.989,5.737 366.315,5.955 366.624,6.198 366.912,6.465 367.179,6.753 367.422,7.062 367.640,7.388 367.832,7.731 367.996,8.087 368.132,8.455 368.238,8.833 368.315,9.218 368.361,9.608 368.377,10.001 368.377,125.251 368.361,125.644 368.315,126.034 368.238,126.419 368.132,126.797 367.996,127.165 367.832,127.521 367.640,127.864 367.422,128.190 367.179,128.498 366.912,128.787 366.624,129.054 366.315,129.296 365.989,129.515 365.646,129.706 365.290,129.871 364.922,130.007 364.544,130.113 364.159,130.190 363.769,130.236 363.377,130.252 10.001,130.251 9.608,130.236 9.218,130.190 8.833,130.113 8.455,130.007 8.087,129.871 7.731,129.706 7.388,129.515 7.062,129.296 6.753,129.054 6.465,128.787 6.198,128.498 5.955,128.190 5.737,127.864 5.545,127.521 5.381,127.165 5.245,126.797 5.139,126.419 5.062,126.034 5.016,125.644 5.000,125.251 5.001,10.001 5.016,9.608 5.062,9.218 5.139,8.833 5.245,8.455 5.381,8.087 5.545,7.731 5.737,7.388 5.955,7.062 6.198,6.753 6.465,6.465 6.753,6.198 7.062,5.955 7.388,5.737 7.731,5.545 8.087,5.381 8.455,5.245 8.833,5.139 9.218,5.062 9.608,5.016 10.001,5.000" style="fill:none;stroke-width:0.050000mm;stroke:black"/>
<polygon points="359.949,119.898 359.113,120.324 358.449,120.988 358.023,121.824 357.877,122.751 358.023,123.679 358.449,124.515 359.113,125.179 359.949,125.605 360.877,125.751 361.804,125.605 362.640,125.179 363.304,124.515 363.730,123.679 363.877,122.751 363.730,121.824 363.304,120.988 362.640,120.324 361.804,119.898 360.877,119.751" style="fill:none;stroke-width:0.050000mm;stroke:black"/>
<polygon points="185.761,119.898 184.925,120.324 184.261,120.988 183.835,121.824 183.689,122.751 183.835,123.679 184.261,124.515 184.925,125.179 185.761,125.605 186.689,125.751 187.616,125.605 188.452,125.179 189.116,124.515 189.542,123.679 189.689,122.751 189.542,121.824 189.116,120.988 188.452,120.324 187.616,119.898 186.689,119.751" style="fill:none;stroke-width:0.050000mm;stroke:black"/>
<polygon points="11.573,119.898 10.737,120.324 10.073,120.988 9.647,121.824 9.500,122.751 9.647,123.679 10.073,124.515 10.737,125.179 11.573,125.605 12.501,125.751 13.428,125.605 14.264,125.179 14.928,124.515 15.354,123.679 15.501,122.751 15.354,121.824 14.928,120.988 14.264,120.324 13.428,119.898 12.501,119.751" style="fill:none;stroke-width:0.050000mm;stroke:black"/>
<polygon points="139.207,98.726 139.207,99.726 138.407,99.726 138.407,102.825 139.207,102.825 139.207,103.426 137.682,103.426 137.682,100.196 135.957,100.196 135.957,99.275 132.657,99.275 132.657,100.196 130.932,100.196 130.932,103.426 130.107,103.426 130.107,106.226 130.932,106.226 130.932,112.495 132.657,112.495 132.657,113.476 135.957,113.476 135.957,112.495 137.682,112.495 137.682,108.025 139.207,108.025 139.207,108.626 138.407,108.626 138.407,111.726 139.207,111.726 139.207,112.726 153.207,112.726 153.207,111.726 154.007,111.726 154.007,108.626 153.207,108.626 153.207,108.025 154.732,108.025 154.732,112.495 156.457,112.495 156.457,113.476 159.757,113.476 159.757,112.495 161.482,112.495 161.482,106.226 162.307,106.226 162.307,103.426 161.482,103.426 161.482,100.196 159.757,100.196 159.757,99.275 156.457,99.275 156.457,100.196 154.732,100.196 154.732,103.426 153.207,103.426 153.207,102.825 154.007,102.825 154.007,99.726 153.207,99.726 153.207,98.726" style="fill:none;stroke-width:0.050000mm;stroke:black"/>
<polygon points="186.832,98.726 186.832,99.726 186.032,99.726 186.032,102.825 186.832,102.825 186.832,103.426 185.307,103.426 185.307,100.196 183.582,100.196 183.582,99.275 180.282,99.275 180.282,100.196 178.557,100.196 178.557,103.426 177.732,103.426 177.732,106.226 178.557,106.226 178.557,112.495 180.282,112.495 180.282,113.476 183.582,113.476 183.582,112.495 185.307,112.495 185.307,108.025 186.832,108.025 186.832,108.626 186.032,108.626 186.032,111.726 186.832,111.726 186.832,112.726 200.832,112.726 200.832,111.726 201.632,111.726 201.632,108.626 200.832,108.626 200.832,108.025 202.357,108.025 202.357,112.495 204.082,112.495 204.082,113.476 207.382,113.476 207.382,112.495 209.107,112.495 209.107,106.226 209.932,106.226 209.932,103.426 209.107,103.426 209.107,100.196 207.382,100.196 207.382,99.275 204.082,99.275 204.082,100.196 202.357,100.196 202.357,103.426 200.832,103.426 200.832,102.825 201.632,102.825 201.632,99.726 200.832,99.726 200.832,98.726" style="fill:none;stroke-width:0.050000mm;stroke:black"/>
<polygon points="53.482,98.726 53.482,99.726 52.682,99.726 52.682,102.825 53.482,102.825 53.482,108.626 52.682,108.626 52.682,111.726 53.482,111.726 53.482,112.726 67.482,112.726 67.482,111.726 68.282,111.726 68.282,108.626 67.482,108.626 67.482,102.825 68.282,102.825 68.282,99.726 67.482,99.726 67.482,98.726" style="fill:none;stroke-width:0.050000mm;stroke:black"/>
<polygon points="77.294,98.726 77.294,99.726 76.494,99.726 76.494,102.825 77.294,102.825 77.294,108.626 76.494,108.626 76.494,111.726 77.294,111.726 77.294,112.726 91.294,112.726 91.294,111.726 92.094,111.726 92.094,108.626 91.294,108.626 91.294,102.825 92.094,102.825 92.094,99.726 91.294,99.726 91.294,98.726" style="fill:none;stroke-width:0.050000mm;stroke:black"/>
<polygon points="101.107,98.726 101.107,99.726 100.307,99.726 100.307,102.825 101.107,102.825 101.107,108.626 100.307,108.626 100.307,111.726 101.107,111.726 101.107,112.726 115.107,112.726 115.107,111.726 115.907,111.726 115.907,108.626 115.107,108.626 115.107,102.825 115.907,102.825 115.907,99.726 115.107,99.726 115.107,98.726" style="fill:none;stroke-width:0.050000mm;stroke:black"/>
<polygon points="220.169,98.726 220.169,99.726 219.369,99.726 219.369,102.825 220.169,102.825 220.169,108.626 219.369,108.626 219.369,111.726 220.169,111.726 220.169,112.726 234.169,112.726 234.169,111.726 234.969,111.726 234.969,108.626 234.169,108.626 234.169,102.825 234.969,102.825 234.969,99.726 234.169,99.726 234.169,98.726" style="fill:none;stroke-width:0.050000mm;stroke:black"/>
<polygon points="243.982,98.726 243.982,99.726 243.182,99.726 243.182,102.825 243.982,102.825 243.982,108.626 243.182,108.626 243.182,111.726 243.982,111.726 243.982,112.726 257.982,112.726 257.982,111.726 258.782,111.726 258.782,108.626 257.982,108.626 257.982,102.825 258.782,102.825 258.782,99.726 257.982,99.726 257.982,98.726" style="fill:none;stroke-width:0.050000mm;stroke:black"/>
<polygon points="265.413,98.726 265.413,99.726 264.613,99.726 264.613,102.825 265.413,102.825 265.413,108.626 264.613,108.626 264.613,111.726 265.413,111.726 265.413,112.726 279.413,112.726 279.413,111.726 280.213,111.726 280.213,108.626 279.413,108.626 279.413,102.825 280.213,102.825 280.213,99.726 279.413,99.726 279.413,98.726" style="fill:none;stroke-width:0.050000mm;stroke:black"/>
<polygon points="298.751,98.726 298.751,99.726 297.951,99.726 297.951,102.825 298.751,102.825 298.751,108.626 297.951,108.626 297.951,111.726 298.751,111.726 298.751,112.726 312.751,112.726 312.751,111.726 313.551,111.726 313.551,108.626 312.751,108.626 312.751,102.825 313.551,102.825 313.551,99.726 312.751,99.726 312.751,98.726" style="fill:none;stroke-width:0.050000mm;stroke:black"/>
<polygon points="317.801,98.726 317.801,99.726 317.001,99.726 317.001,102.825 317.801,102.825 317.801,108.626 317.001,108.626 317.001,111.726 317.801,111.726 317.801,112.726 331.801,112.726 331.801,111.726 332.601,111.726 332.601,108.626 331.801,108.626 331.801,102.825 332.601,102.825 332.601,99.726 331.801,99.726 331.801,98.726" style="fill:none;stroke-width:0.050000mm;stroke:black"/>
<polygon points="336.851,98.726 336.851,99.726 336.051,99.726 336.051,102.825 336.851,102.825 336.851,108.626 336.051,108.626 336.051,111.726 336.851,111.726 336.851,112.726 350.851,112.726 350.851,111.726 351.651,111.726 351.651,108.626 350.851,108.626 350.851,102.825 351.651,102.825 351.651,99.726 350.851,99.726 350.851,98.726" style="fill:none;stroke-width:0.050000mm;stroke:black"/>
<polygon points="63.007,79.676 63.007,80.676 62.207,80.676 62.207,83.775 63.007,83.775 63.007,84.376 61.482,84.376 61.482,81.146 59.757,81.146 59.757,80.226 56.457,80.226 56.457,81.146 54.732,81.146 54.732,84.376 53.907,84.376 53.907,87.176 54.732,87.176 54.732,93.446 56.457,93.446 56.457,94.426 59.757,94.426 59.757,93.446 61.482,93.446 61.482,88.976 63.007,88.976 63.007,89.576 62.207,89.576 62.207,92.676 63.007,92.676 63.007,93.676 77.007,93.676 77.007,92.676 77.807,92.676 77.807,89.576 77.007,89.576 77.007,88.976 78.532,88.976 78.532,93.446 80.257,93.446 80.257,94.426 83.557,94.426 83.557,93.446 85.282,93.446 85.282,87.176 86.107,87.176 86.107,84.376 85.282,84.376 85.282,81.146 83.557,81.146 83.557,80.226 80.257,80.226 80.257,81.146 78.532,81.146 78.532,84.376 77.007,84.376 77.007,83.775 77.807,83.775 77.807,80.676 77.007,80.676 77.007,79.676" style="fill:none;stroke-width:0.050000mm;stroke:black"/>
<polygon points="93.963,79.676 93.963,80.676 93.163,80.676 93.163,83.775 93.963,83.775 93.963,89.576 93.163,89.576 93.163,92.676 93.963,92.676 93.963,93.676 107.963,93.676 107.963,92.676 108.763,92.676 108.763,89.576 107.963,89.576 107.963,83.775 108.763,83.775 108.763,80.676 107.963,80.676 107.963,79.676" style="fill:none;stroke-width:0.050000mm;stroke:black"/>
<polygon points="113.013,79.676 113.013,80.676 112.213,80.676 112.213,83.775 113.013,83.775 113.013,89.576 112.213,89.576 112.213,92.676 113.013,92.676 113.013,93.676 127.013,93.676 127.013,92.676 127.813,92.676 127.813,89.576 127.013,89.576 127.013,83.775 127.813,83.775 127.813,80.676 127.013,80.676 127.013,79.676" style="fill:none;stroke-width:0.050000mm;stroke:black"/>
<polygon points="132.063,79.676 132.063,80.676 131.263,80.676 131.263,83.775 132.063,83.775 132.063,89.576 131.263,89.576 131.263,92.676 132.063,92.676 132.063,93.676 146.063,93.676 146.063,92.676 146.863,92.676 146.863,89.576 146.063,89.576 146.063,83.775 146.863,83.775 146.863,80.676 146.063,80.676 146.063,79.676" style="fill:none;stroke-width:0.050000mm;stroke:black"/>
<polygon points="151.113,79.676 151.113,80.676 150.313,80.676 150.313,83.775 151.113,83.775 151.113,89.576 150.313,89.576 150.313,92.676 151.113,92.676 151.113,93.676 165.113,93.676 165.113,92.676 165.913,92.676 165.913,89.576 165.113,89.576 165.113,83.775 165.913,83.775 165.913,80.676 165.113,80.676 165.113,79.676" style="fill:none;stroke-width:0.050000mm;stroke:black"/>
<polygon points="170.163,79.676 170.163,80.676 169.363,80.676 169.363,83.775 170.163,83.775 170.163,89.576 169.363,89.576 169.363,92.676 170.163,92.676 170.163,93.676 184.163,93.676 184.163,92.676 184.963,92.676 184.963,89.576 184.163,89.576 184.163,83.775 184.963,83.775 184.963,80.676 184.163,80.676 184.163,79.676" style="fill:none;stroke-width:0.050000mm;stroke:black"/>
<polygon points="189.213,79.676 189.213,80.676 188.413,80.676 188.413,83.775 189.213,83.775 189.213,89.576 188.413,89.576 188.413,92.676 189.213,92.676 189.213,93.676 203.213,93.676 203.213,92.676 204.013,92.676 204.013,89.576 203.213,89.576 203.213,83.775 204.013,83.775 204.013,80.676 203.213,80.676 203.213,79.676" style="fill:none;stroke-width:0.050000mm;stroke:black"/>
<polygon points="208.263,79.676 208.263,80.676 207.463,80.676 207.463,83.775 208.263,83.775 208.263,89.576 207.463,89.576 207.463,92.676 208.263,92.676 208.263,93.676 222.263,93.676 222.263,92.676 223.063,92.676 223.063,89.576 222.263,89.576 222.263,83.775 223.063,83.775 223.063,80.676 222.263,80.676 222.263,79.676" style="fill:none;stroke-width:0.050000mm;stroke:black"/>
<polygon points="227.313,79.676 227.313,80.676 226.513,80.676 226.513,83.775 227.313,83.775 227.313,89.576 226.513,89.576 226.513,92.676 227.313,92.676 227.313,93.676 241.313,93.676 241.313,92.676 242.113,92.676 242.113,89.576 241.313,89.576 241.313,83.775 242.113,83.775 242.113,80.676 241.313,80.676 241.313,79.676" style="fill:none;stroke-width:0.050000mm;stroke:black"/>
<polygon points="246.363,79.676 246.363,80.676 245.563,80.676 245.563,83.775 246.363,83.775 246.363,89.576 245.563,89.576 245.563,92.676 246.363,92.676 246.363,93.676 260.363,93.676 260.363,92.676 261.162,92.676 261.162,89.576 260.363,89.576 260.363,83.775 261.162,83.775 261.162,80.676 260.363,80.676 260.363,79.676" style="fill:none;stroke-width:0.050000mm;stroke:black"/>
<polygon points="265.413,79.676 265.413,80.676 264.613,80.676 264.613,83.775 265.413,83.775 265.413,89.576 264.613,89.576 264.613,92.676 265.413,92.676 265.413,93.676 279.413,93.676 279.413,92.676 280.213,92.676 280.213,89.576 279.413,89.576 279.413,83.775 280.213,83.775 280.213,80.676 279.413,80.676 279.413,79.676" style="fill:none;stroke-width:0.050000mm;stroke:black"/>
<polygon points="291.607,79.676 291.607,80.676 290.807,80.676 290.807,83.775 291.607,83.775 291.607,89.576 290.807,89.576 290.807,92.676 291.607,92.676 291.607,93.676 305.607,93.676 305.607,92.676 306.407,92.676 306.407,89.576 305.607,89.576 305.607,83.775 306.407,83.775 306.407,80.676 305.607,80.676 305.607,79.676" style="fill:none;stroke-width:0.050000mm;stroke:black"/>
<polygon points="317.801,79.676 317.801,80.676 317.001,80.676 317.001,83.775 317.801,83.775 317.801,89.576 317.001,89.576 317.001,92.676 317.801,92.676 317.801,93.676 331.801,93.676 331.801,92.676 332.601,92.676 332.601,89.576 331.801,89.576 331.801,83.775 332.601,83.775 332.601,80.676 331.801,80.676 331.801,79.676" style="fill:none;stroke-width:0.050000mm;stroke:black"/>
<polygon points="336.851,79.676 336.851,80.676 336.051,80.676 336.051,83.775 336.851,83.775 336.851,89.576 336.051,89.576 336.051,92.676 336.851,92.676 336.851,93.676 350.851,93.676 350.851,92.676 351.651,92.676 351.651,89.576 350.851,89.576 350.851,83.775 351.651,83.775 351.651,80.676 350.851,80.676 350.851,79.676" style="fill:none;stroke-width:0.050000mm;stroke:black"/>
<polygon points="305.894,60.626 305.894,61.626 305.094,61.626 305.094,64.725 305.894,64.725 305.894,65.326 304.369,65.326 304.369,62.096 302.644,62.096 302.644,61.176 299.344,61.176 299.344,62.096 297.619,62.096 297.619,65.326 296.794,65.326 296.794,68.126 297.619,68.126 297.619,74.396 299.344,74.396 299.344,75.376 302.644,75.376 302.644,74.396 304.369,74.396 304.369,69.926 305.894,69.926 305.894,70.526 305.094,70.526 305.094,73.626 305.894,73.626 305.894,74.626 319.894,74.626 319.894,73.626 320.694,73.626 320.694,70.526 319.894,70.526 319.894,69.926 321.419,69.926 321.419,74.396 323.144,74.396 323.144,75.376 326.444,75.376 326.444,74.396 328.169,74.396 328.169,68.126 328.994,68.126 328.994,65.326 328.169,65.326 328.169,62.096 326.444,62.096 326.444,61.176 323.144,61.176 323.144,62.096 321.419,62.096 321.419,65.326 319.894,65.326 319.894,64.725 320.694,64.725 320.694,61.626 319.894,61.626 319.894,60.626" style="fill:none;stroke-width:0.050000mm;stroke:black"/>
<polygon points="58.244,60.626 58.244,61.626 57.444,61.626 57.444,64.725 58.244,64.725 58.244,70.526 57.444,70.526 57.444,73.626 58.244,73.626 58.244,74.626 72.244,74.626 72.244,73.626 73.044,73.626 73.044,70.526 72.244,70.526 72.244,64.725 73.044,64.725 73.044,61.626 72.244,61.626 72.244,60.626" style="fill:none;stroke-width:0.050000mm;stroke:black"/>
<polygon points="84.438,60.626 84.438,61.626 83.638,61.626 83.638,64.725 84.438,64.725 84.438,70.526 83.638,70.526 83.638,73.626 84.438,73.626 84.438,74.626 98.438,74.626 98.438,73.626 99.238,73.626 99.238,70.526 98.438,70.526 98.438,64.725 99.238,64.725 99.238,61.626 98.438,61.626 98.438,60.626" style="fill:none;stroke-width:0.050000mm;stroke:black"/>
<polygon points="103.488,60.626 103.488,61.626 102.688,61.626 102.688,64.725 103.488,64.725 103.488,70.526 102.688,70.526 102.688,73.626 103.488,73.626 103.488,74.626 117.488,74.626 117.488,73.626 118.288,73.626 118.288,70.526 117.488,70.526 117.488,64.725 118.288,64.725 118.288,61.626 117.488,61.626 117.488,60.626" style="fill:none;stroke-width:0.050000mm;stroke:black"/>
<polygon points="122.538,60.626 122.538,61.626 121.738,61.626 121.738,64.725 122.538,64.725 122.538,70.526 121.738,70.526 121.738,73.626 122.538,73.626 122.538,74.626 136.538,74.626 136.538,73.626 137.338,73.626 137.338,70.526 136.538,70.526 136.538,64.725 137.338,64.725 137.338,61.626 136.538,61.626 136.538,60.626" style="fill:none;stroke-width:0.050000mm;stroke:black"/>
<polygon points="141.588,60.626 141.588,61.626 140.788,61.626 140.788,64.725 141.588,64.725 141.588,70.526 140.788,70.526 140.788,73.626 141.588,73.626 141.588,74.626 155.588,74.626 155.588,73.626 156.388,73.626 156.388,70.526 155.588,70.526 155.588,64.725 156.388,64.725 156.388,61.626 155.588,61.626 155.588,60.626" style="fill:none;stroke-width:0.050000mm;stroke:black"/>
<polygon points="160.638,60.626 160.638,61.626 159.838,61.626 159.838,64.725 160.638,64.725 160.638,70.526 159.838,70.526 159.838,73.626 160.638,73.626 160.638,74.626 174.638,74.626 174.638,73.626 175.438,73.626 175.438,70.526 174.638,70.526 174.638,64.725 175.438,64.725 175.438,61.626 174.638,61.626 174.638,60.626" style="fill:none;stroke-width:0.050000mm;stroke:black"/>
<polygon points="179.688,60.626 179.688,61.626 178.888,61.626 178.888,64.725 179.688,64.725 179.688,70.526 178.888,70.526 178.888,73.626 179.688,73.626 179.688,74.626 193.688,74.626 193.688,73.626 194.488,73.626 194.488,70.526 193.688,70.526 193.688,64.725 194.488,64.725 194.488,61.626 193.688,61.626 193.688,60.626" style="fill:none;stroke-width:0.050000mm;stroke:black"/>
<polygon points="198.738,60.626 198.738,61.626 197.938,61.626 197.938,64.725 198.738,64.725 198.738,70.526 197.938,70.526 197.938,73.626 198.738,73.626 198.738,74.626 212.738,74.626 212.738,73.626 213.538,73.626 213.538,70.526 212.738,70.526 212.738,64.725 213.538,64.725 213.538,61.626 212.738,61.626 212.738,60.626" style="fill:none;stroke-width:0.050000mm;stroke:black"/>
<polygon points="217.788,60.626 217.788,61.626 216.988,61.626 216.988,64.725 217.788,64.725 217.788,70.526 216.988,70.526 216.988,73.626 217.788,73.626 217.788,74.626 231.788,74.626 231.788,73.626 232.588,73.626 232.588,70.526 231.788,70.526 231.788,64.725 232.588,64.725 232.588,61.626 231.788,61.626 231.788,60.626" style="fill:none;stroke-width:0.050000mm;stroke:black"/>
<polygon points="236.838,60.626 236.838,61.626 236.038,61.626 236.038,64.725 236.838,64.725 236.838,70.526 236.038,70.526 236.038,73.626 236.838,73.626 236.838,74.626 250.838,74.626 250.838,73.626 251.638,73.626 251.638,70.526 250.838,70.526 250.838,64.725 251.638,64.725 251.638,61.626 250.838,61.626 250.838,60.626" style="fill:none;stroke-width:0.050000mm;stroke:black"/>
<polygon points="255.888,60.626 255.888,61.626 255.088,61.626 255.088,64.725 255.888,64.725 255.888,70.526 255.088,70.526 255.088,73.626 255.888,73.626 255.888,74.626 269.888,74.626 269.888,73.626 270.688,73.626 270.688,70.526 269.888,70.526 269.888,64.725 270.688,64.725 270.688,61.626 269.888,61.626 269.888,60.626" style="fill:none;stroke-width:0.050000mm;stroke:black"/>
<polygon points="274.938,60.626 274.938,61.626 274.138,61.626 274.138,64.725 274.938,64.725 274.938,70.526 274.138,70.526 274.138,73.626 274.938,73.626 274.938,74.626 288.938,74.626 288.938,73.626 289.738,73.626 289.738,70.526 288.938,70.526 288.938,64.725 289.738,64.725 289.738,61.626 288.938,61.626 288.938,60.626" style="fill:none;stroke-width:0.050000mm;stroke:black"/>
<polygon points="336.851,60.626 336.851,61.626 336.051,61.626 336.051,64.725 336.851,64.725 336.851,70.526 336.051,70.526 336.051,73.626 336.851,73.626 336.851,74.626 350.851,74.626 350.851,73.626 351.651,73.626 351.651,70.526 350.851,70.526 350.851,64.725 351.651,64.725 351.651,61.626 350.851,61.626 350.851,60.626" style="fill:none;stroke-width:0.050000mm;stroke:black"/>
<polygon points="22.526,41.576 22.526,42.576 21.725,42.576 21.725,45.676 22.526,45.676 22.526,51.476 21.725,51.476 21.725,54.576 22.526,54.576 22.526,55.576 36.526,55.576 36.526,54.576 37.325,54.576 37.325,51.476 36.526,51.476 36.526,45.676 37.325,45.676 37.325,42.576 36.526,42.576 36.526,41.576" style="fill:none;stroke-width:0.050000mm;stroke:black"/>
<polygon points="55.863,41.576 55.863,42.576 55.063,42.576 55.063,45.676 55.863,45.676 55.863,51.476 55.063,51.476 55.063,54.576 55.863,54.576 55.863,55.576 69.863,55.576 69.863,54.576 70.663,54.576 70.663,51.476 69.863,51.476 69.863,45.676 70.663,45.676 70.663,42.576 69.863,42.576 69.863,41.576" style="fill:none;stroke-width:0.050000mm;stroke:black"/>
<polygon points="79.676,41.576 79.676,42.576 78.876,42.576 78.876,45.676 79.676,45.676 79.676,51.476 78.876,51.476 78.876,54.576 79.676,54.576 79.676,55.576 93.676,55.576 93.676,54.576 94.476,54.576 94.476,51.476 93.676,51.476 93.676,45.676 94.476,45.676 94.476,42.576 93.676,42.576 93.676,41.576" style="fill:none;stroke-width:0.050000mm;stroke:black"/>
<polygon points="98.726,41.576 98.726,42.576 97.926,42.576 97.926,45.676 98.726,45.676 98.726,51.476 97.926,51.476 97.926,54.576 98.726,54.576 98.726,55.576 112.726,55.576 112.726,54.576 113.526,54.576 113.526,51.476 112.726,51.476 112.726,45.676 113.526,45.676 113.526,42.576 112.726,42.576 112.726,41.576" style="fill:none;stroke-width:0.050000mm;stroke:black"/>
<polygon points="117.776,41.576 117.776,42.576 116.976,42.576 116.976,45.676 117.776,45.676 117.776,51.476 116.976,51.476 116.976,54.576 117.776,54.576 117.776,55.576 131.776,55.576 131.776,54.576 132.576,54.576 132.576,51.476 131.776,51.476 131.776,45.676 132.576,45.676 132.576,42.576 131.776,42.576 131.776,41.576" style="fill:none;stroke-width:0.050000mm;stroke:black"/>
<polygon points="136.826,41.576 136.826,42.576 136.026,42.576 136.026,45.676 136.826,45.676 136.826,51.476 136.026,51.476 136.026,54.576 136.826,54.576 136.826,55.576 150.826,55.576 150.826,54.576 151.626,54.576 151.626,51.476 150.826,51.476 150.826,45.676 151.626,45.676 151.626,42.576 150.826,42.576 150.826,41.576" style="fill:none;stroke-width:0.050000mm;stroke:black"/>
<polygon points="155.876,41.576 155.876,42.576 155.076,42.576 155.076,45.676 155.876,45.676 155.876,51.476 155.076,51.476 155.076,54.576 155.876,54.576 155.876,55.576 169.876,55.576 169.876,54.576 170.676,54.576 170.676,51.476 169.876,51.476 169.876,45.676 170.676,45.676 170.676,42.576 169.876,42.576 169.876,41.576" style="fill:none;stroke-width:0.050000mm;stroke:black"/>
<polygon points="174.926,41.576 174.926,42.576 174.126,42.576 174.126,45.676 174.926,45.676 174.926,51.476 174.126,51.476 174.126,54.576 174.926,54.576 174.926,55.576 188.926,55.576 188.926,54.576 189.726,54.576 189.726,51.476 188.926,51.476 188.926,45.676 189.726,45.676 189.726,42.576 188.926,42.576 188.926,41.576" style="fill:none;stroke-width:0.050000mm;stroke:black"/>
<polygon points="193.976,41.576 193.976,42.576 193.176,42.576 193.176,45.676 193.976,45.676 193.976,51.476 193.176,51.476 193.176,54.576 193.976,54.576 193.976,55.576 207.976,55.576 207.976,54.576 208.776,54.576 208.776,51.476 207.976,51.476 207.976,45.676 208.776,45.676 208.776,42.576 207.976,42.576 207.976,41.576" style="fill:none;stroke-width:0.050000mm;stroke:black"/>
<polygon points="213.026,41.576 213.026,42.576 212.226,42.576 212.226,45.676 213.026,45.676 213.026,51.476 212.226,51.476 212.226,54.576 213.026,54.576 213.026,55.576 227.026,55.576 227.026,54.576 227.826,54.576 227.826,51.476 227.026,51.476 227.026,45.676 227.826,45.676 227.826,42.576 227.026,42.576 227.026,41.576" style="fill:none;stroke-width:0.050000mm;stroke:black"/>
<polygon points="232.076,41.576 232.076,42.576 231.276,42.576 231.276,45.676 232.076,45.676 232.076,51.476 231.276,51.476 231.276,54.576 232.076,54.576 232.076,55.576 246.076,55.576 246.076,54.576 246.876,54.576 246.876,51.476 246.076,51.476 246.076,45.676 246.876,45.676 246.876,42.576 246.076,42.576 246.076,41.576" style="fill:none;stroke-width:0.050000mm;stroke:black"/>
<polygon points="251.126,41.576 251.126,42.576 250.326,42.576 250.326,45.676 251.126,45.676 251.126,51.476 250.326,51.476 250.326,54.576 251.126,54.576 251.126,55.576 265.126,55.576 265.126,54.576 265.926,54.576 265.926,51.476 265.126,51.476 265.126,45.676 265.926,45.676 265.926,42.576 265.126,42.576 265.126,41.576" style="fill:none;stroke-width:0.050000mm;stroke:black"/>
<polygon points="270.176,41.576 270.176,42.576 269.376,42.576 269.376,45.676 270.176,45.676 270.176,51.476 269.376,51.476 269.376,54.576 270.176,54.576 270.176,55.576 284.176,55.576 284.176,54.576 284.976,54.576 284.976,51.476 284.176,51.476 284.176,45.676 284.976,45.676 284.976,42.576 284.176,42.576 284.176,41.576" style="fill:none;stroke-width:0.050000mm;stroke:black"/>
<polygon points="289.226,41.576 289.226,42.576 288.426,42.576 288.426,45.676 289.226,45.676 289.226,51.476 288.426,51.476 288.426,54.576 289.226,54.576 289.226,55.576 303.226,55.576 303.226,54.576 304.026,54.576 304.026,51.476 303.226,51.476 303.226,45.676 304.026,45.676 304.026,42.576 303.226,42.576 303.226,41.576" style="fill:none;stroke-width:0.050000mm;stroke:black"/>
<polygon points="313.038,41.576 313.038,42.576 312.238,42.576 312.238,45.676 313.038,45.676 313.038,51.476 312.238,51.476 312.238,54.576 313.038,54.576 313.038,55.576 327.038,55.576 327.038,54.576 327.838,54.576 327.838,51.476 327.038,51.476 327.038,45.676 327.838,45.676 327.838,42.576 327.038,42.576 327.038,41.576" style="fill:none;stroke-width:0.050000mm;stroke:black"/>
<polygon points="336.851,41.576 336.851,42.576 336.051,42.576 336.051,45.676 336.851,45.676 336.851,51.476 336.051,51.476 336.051,54.576 336.851,54.576 336.851,55.576 350.851,55.576 350.851,54.576 351.651,54.576 351.651,51.476 350.851,51.476 350.851,45.676 351.651,45.676 351.651,42.576 350.851,42.576 350.851,41.576" style="fill:none;stroke-width:0.050000mm;stroke:black"/>
<polygon points="308.276,22.526 308.276,23.526 307.476,23.526 307.476,26.626 308.276,26.626 308.276,27.225 306.751,27.225 306.751,23.995 305.026,23.995 305.026,23.076 301.726,23.076 301.726,23.995 300.001,23.995 300.001,27.225 299.176,27.225 299.176,30.026 300.001,30.026 300.001,36.296 301.726,36.296 301.726,37.276 305.026,37.276 305.026,36.296 306.751,36.296 306.751,31.826 308.276,31.826 308.276,32.425 307.476,32.425 307.476,35.526 308.276,35.526 308.276,36.526 322.276,36.526 322.276,35.526 323.076,35.526 323.076,32.425 322.276,32.425 322.276,31.826 323.801,31.826 323.801,36.296 325.526,36.296 325.526,37.276 328.826,37.276 328.826,36.296 330.551,36.296 330.551,30.026 331.376,30.026 331.376,27.225 330.551,27.225 330.551,23.995 328.826,23.995 328.826,23.076 325.526,23.076 325.526,23.995 323.801,23.995 323.801,27.225 322.276,27.225 322.276,26.626 323.076,26.626 323.076,23.526 322.276,23.526 322.276,22.526" style="fill:none;stroke-width:0.050000mm;stroke:black"/>
<polygon points="22.526,22.526 22.526,23.526 21.725,23.526 21.725,26.626 22.526,26.626 22.526,32.425 21.725,32.425 21.725,35.526 22.526,35.526 22.526,36.526 36.526,36.526 36.526,35.526 37.325,35.526 37.325,32.425 36.526,32.425 36.526,26.626 37.325,26.626 37.325,23.526 36.526,23.526 36.526,22.526" style="fill:none;stroke-width:0.050000mm;stroke:black"/>
<polygon points="51.101,22.526 51.101,23.526 50.301,23.526 50.301,26.626 51.101,26.626 51.101,32.425 50.301,32.425 50.301,35.526 51.101,35.526 51.101,36.526 65.100,36.526 65.100,35.526 65.901,35.526 65.901,32.425 65.100,32.425 65.100,26.626 65.901,26.626 65.901,23.526 65.100,23.526 65.100,22.526" style="fill:none;stroke-width:0.050000mm;stroke:black"/>
<polygon points="70.151,22.526 70.151,23.526 69.351,23.526 69.351,26.626 70.151,26.626 70.151,32.425 69.351,32.425 69.351,35.526 70.151,35.526 70.151,36.526 84.151,36.526 84.151,35.526 84.951,35.526 84.951,32.425 84.151,32.425 84.151,26.626 84.951,26.626 84.951,23.526 84.151,23.526 84.151,22.526" style="fill:none;stroke-width:0.050000mm;stroke:black"/>
<polygon points="89.201,22.526 89.201,23.526 88.401,23.526 88.401,26.626 89.201,26.626 89.201,32.425 88.401,32.425 88.401,35.526 89.201,35.526 89.201,36.526 103.201,36.526 103.201,35.526 104.001,35.526 104.001,32.425 103.201,32.425 103.201,26.626 104.001,26.626 104.001,23.526 103.201,23.526 103.201,22.526" style="fill:none;stroke-width:0.050000mm;stroke:black"/>
<polygon points="108.251,22.526 108.251,23.526 107.451,23.526 107.451,26.626 108.251,26.626 108.251,32.425 107.451,32.425 107.451,35.526 108.251,35.526 108.251,36.526 122.251,36.526 122.251,35.526 123.051,35.526 123.051,32.425 122.251,32.425 122.251,26.626 123.051,26.626 123.051,23.526 122.251,23.526 122.251,22.526" style="fill:none;stroke-width:0.050000mm;stroke:black"/>
<polygon points="127.301,22.526 127.301,23.526 126.501,23.526 126.501,26.626 127.301,26.626 127.301,32.425 126.501,32.425 126.501,35.526 127.301,35.526 127.301,36.526 141.301,36.526 141.301,35.526 142.101,35.526 142.101,32.425 141.301,32.425 141.301,26.626 142.101,26.626 142.101,23.526 141.301,23.526 141.301,22.526" style="fill:none;stroke-width:0.050000mm;stroke:black"/>
<polygon points="146.351,22.526 146.351,23.526 145.551,23.526 145.551,26.626 146.351,26.626 146.351,32.425 145.551,32.425 145.551,35.526 146.351,35.526 146.351,36.526 160.351,36.526 160.351,35.526 161.151,35.526 161.151,32.425 160.351,32.425 160.351,26.626 161.151,26.626 161.151,23.526 160.351,23.526 160.351,22.526" style="fill:none;stroke-width:0.050000mm;stroke:black"/>
<polygon points="165.401,22.526 165.401,23.526 164.601,23.526 164.601,26.626 165.401,26.626 165.401,32.425 164.601,32.425 164.601,35.526 165.401,35.526 165.401,36.526 179.401,36.526 179.401,35.526 180.201,35.526 180.201,32.425 179.401,32.425 179.401,26.626 180.201,26.626 180.201,23.526 179.401,23.526 179.401,22.526" style="fill:none;stroke-width:0.050000mm;stroke:black"/>
<polygon points="184.451,22.526 184.451,23.526 183.651,23.526 183.651,26.626 184.451,26.626 184.451,32.425 183.651,32.425 183.651,35.526 184.451,35.526 184.451,36.526 198.451,36.526 198.451,35.526 199.251,35.526 199.251,32.425 198.451,32.425 198.451,26.626 199.251,26.626 199.251,23.526 198.451,23.526 198.451,22.526" style="fill:none;stroke-width:0.050000mm;stroke:black"/>
<polygon points="203.501,22.526 203.501,23.526 202.701,23.526 202.701,26.626 203.501,26.626 203.501,32.425 202.701,32.425 202.701,35.526 203.501,35.526 203.501,36.526 217.501,36.526 217.501,35.526 218.301,35.526 218.301,32.425 217.501,32.425 217.501,26.626 218.301,26.626 218.301,23.526 217.501,23.526 217.501,22.526" style="fill:none;stroke-width:0.050000mm;stroke:black"/>
<polygon points="222.551,22.526 222.551,23.526 221.751,23.526 221.751,26.626 222.551,26.626 222.551,32.425 221.751,32.425 221.751,35.526 222.551,35.526 222.551,36.526 236.551,36.526 236.551,35.526 237.351,35.526 237.351,32.425 236.551,32.425 236.551,26.626 237.351,26.626 237.351,23.526 236.551,23.526 236.551,22.526" style="fill:none;stroke-width:0.050000mm;stroke:black"/>
<polygon points="241.601,22.526 241.601,23.526 240.801,23.526 240.801,26.626 241.601,26.626 241.601,32.425 240.801,32.425 240.801,35.526 241.601,35.526 241.601,36.526 255.601,36.526 255.601,35.526 256.400,35.526 256.400,32.425 255.601,32.425 255.601,26.626 256.400,26.626 256.400,23.526 255.601,23.526 255.601,22.526" style="fill:none;stroke-width:0.050000mm;stroke:black"/>
<polygon points="260.650,22.526 260.650,23.526 259.851,23.526 259.851,26.626 260.650,26.626 260.650,32.425 259.851,32.425 259.851,35.526 260.650,35.526 260.650,36.526 274.651,36.526 274.651,35.526 275.451,35.526 275.451,32.425 274.651,32.425 274.651,26.626 275.451,26.626 275.451,23.526 274.651,23.526 274.651,22.526" style="fill:none;stroke-width:0.050000mm;stroke:black"/>
<polygon points="279.701,22.526 279.701,23.526 278.901,23.526 278.901,26.626 279.701,26.626 279.701,32.425 278.901,32.425 278.901,35.526 279.701,35.526 279.701,36.526 293.701,36.526 293.701,35.526 294.501,35.526 294.501,32.425 293.701,32.425 293.701,26.626 294.501,26.626 294.501,23.526 293.701,23.526 293.701,22.526" style="fill:none;stroke-width:0.050000mm;stroke:black"/>
<polygon points="185.761,9.647 184.925,10.073 184.261,10.737 183.835,11.573 183.689,12.501 183.835,13.428 184.261,14.264 184.925,14.928 185.761,15.354 186.689,15.501 187.616,15.354 188.452,14.928 189.116,14.264 189.542,13.428 189.689,12.501 189.542,11.573 189.116,10.737 188.452,10.073 187.616,9.647 186.689,9.501" style="fill:none;stroke-width:0.050000mm;stroke:black"/>
<polygon points="359.949,9.647 359.113,10.073 358.449,10.737 358.023,11.573 357.877,12.501 358.023,13.428 358.449,14.264 359.113,14.928 359.949,15.354 360.877,15.501 361.804,15.354 362.640,14.928 363.304,14.264 363.730,13.428 363.877,12.501 363.730,11.573 363.304,10.737 362.640,10.073 361.804,9.647 360.877,9.501" style="fill:none;stroke-width:0.050000mm;stroke:black"/>
<polygon points="11.573,9.647 10.737,10.073 10.073,10.737 9.647,11.573 9.500,12.501 9.647,13.428 10.073,14.264 10.737,14.928 11.573,15.354 12.501,15.501 13.428,15.354 14.264,14.928 14.928,14.264 15.354,13.428 15.501,12.501 15.354,11.573 14.928,10.737 14.264,10.073 13.428,9.647 12.501,9.501" style="fill:none;stroke-width:0.050000mm;stroke:black"/>
</svg>
