<?xml version="1.0"?>
<!-- Generated by SVGo -->
<svg width="373.377mm" height="135.252mm"
     viewBox="0.000 0.000 373.377 135.252"
     xmlns="http://www.w3.org/2000/svg" 
     xmlns:xlink="http://www.w3.org/1999/xlink">
<polygon points="363.377,5.001 363.769,5.016 364.159,5.062 364.544,5.139 364.922,5.245 365.290,5.381 365.646,5.545 365.989,5.737 366.315,5.955 366.624,6.198 366.912,6.465 367.179,6.753 367.422,7.062 367.640,7.388 367.832,7.731 367.996,8.087 368.132,8.455 368.238,8.833 368.315,9.218 368.361,9.608 368.377,10.001 368.377,125.251 368.361,125.644 368.315,126.034 368.238,126.419 368.132,126.797 367.996,127.165 367.832,127.521 367.640,127.864 367.422,128.190 367.179,128.498 366.912,128.787 366.624,129.054 366.315,129.296 365.989,129.515 365.646,129.706 365.290,129.871 364.922,130.007 364.544,130.113 364.159,130.190 363.769,130.236 363.377,130.252 10.001,130.251 9.608,130.236 9.218,130.190 8.833,130.113 8.455,130.007 8.087,129.871 7.731,129.706 7.388,129.515 7.062,129.296 6.753,129.054 6.465,128.787 6.198,128.498 5.955,128.190 5.737,127.864 5.545,127.521 5.381,127.165 5.245,126.797 5.139,126.419 5.062,126.034 5.016,125.644 5.000,125.251 5.001,10.001 5.016,9.608 5.062,9.218 5.139,8.833 5.245,8.455 5.381,8.087 5.545,7.731 5.737,7.388 5.955,7.062 6.198,6.753 6.465,6.465 6.753,6.198 7.062,5.955 7.388,5.737 7.731,5.545 8.087,5.381 8.455,5.245 8.833,5.139 9.218,5.062 9.608,5.016 10.001,5.000" style="fill:none;stroke-width:0.050000mm;stroke:black"/>
<polygon points="359.949,119.898 359.113,120.324 358.449,120.988 358.023,121.824 357.877,122.751 358.023,123.679 358.449,124.515 359.113,125.179 359.949,125.605 360.877,125.751 361.804,125.605 362.640,125.179 363.304,124.515 363.730,123.679 363.877,122.751 363.730,121.824 363.304,120.988 362.640,120.324 361.804,119.898 360.877,119.751" style="fill:none;stroke-width:0.050000mm;stroke:black"/>
<polygon points="185.761,119.898 184.925,120.324 184.261,120.988 183.835,121.824 183.689,122.751 183.835,123.679 184.261,124.515 184.925,125.179 185.761,125.605 186.689,125.751 187.616,125.605 188.452,125.179 189.116,124.515 189.542,123.679 189.689,122.751 189.542,121.824 189.116,120.988 188.452,120.324 187.616,119.898 186.689,119.751" style="fill:none;stroke-width:0.050000mm;stroke:black"/>
<polygon points="11.573,119.898 10.737,120.324 10.073,120.988 9.647,121.824 9.500,122.751 9.647,123.679 10.073,124.515 10.737,125.179 11.573,125.605 12.501,125.751 13.428,125.605 14.264,125.179 14.928,124.515 15.354,123.679 15.501,122.751 15.354,121.824 14.928,120.988 14.264,120.324 13.428,119.898 12.501,119.751" style="fill:none;stroke-width:0.050000mm;stroke:black"/>
<polygon points="185.761,9.647 184.925,10.073 184.261,10.737 183.835,11.573 183.689,12.501 183.835,13.428 184.261,14.264 184.925,14.928 185.761,15.354 186.689,15.501 187.616,15.354 188.452,14.928 189.116,14.264 189.542,13.428 189.689,12.501 189.542,11.573 189.116,10.737 188.452,10.073 187.616,9.647 186.689,9.501" style="fill:none;stroke-width:0.050000mm;stroke:black"/>
<polygon points="359.949,9.647 359.113,10.073 358.449,10.737 358.023,11.573 357.877,12.501 358.023,13.428 358.449,14.264 359.113,14.928 359.949,15.354 360.877,15.501 361.804,15.354 362.640,14.928 363.304,14.264 363.730,13.428 363.877,12.501 363.730,11.573 363.304,10.737 362.640,10.073 361.804,9.647 360.877,9.501" style="fill:none;stroke-width:0.050000mm;stroke:black"/>
<polygon points="11.573,9.647 10.737,10.073 10.073,10.737 9.647,11.573 9.500,12.501 9.647,13.428 10.073,14.264 10.737,14.928 11.573,15.354 12.501,15.501 13.428,15.354 14.264,14.928 14.928,14.264 15.354,13.428 15.501,12.501 15.354,11.573 14.928,10.737 14.264,10.073 13.428,9.647 12.501,9.501" style="fill:none;stroke-width:0.050000mm;stroke:black"/>
</svg>
